<?xml version="1.0" encoding="UTF-8" standalone="no"?><svg xmlns="http://www.w3.org/2000/svg" xmlns:xlink="http://www.w3.org/1999/xlink" contentScriptType="application/ecmascript" contentStyleType="text/css" height="52px" preserveAspectRatio="none" style="width:1173px;height:52px;" version="1.1" viewBox="0 0 1173 52" width="1173px" zoomAndPan="magnify"><defs><filter height="300%" id="frbssygd3oak9" width="300%" x="-1" y="-1"><feGaussianBlur result="blurOut" stdDeviation="2.0"/><feColorMatrix in="blurOut" result="blurOut2" type="matrix" values="0 0 0 0 0 0 0 0 0 0 0 0 0 0 0 0 0 0 .4 0"/><feOffset dx="4.0" dy="4.0" in="blurOut2" result="blurOut3"/><feBlend in="SourceGraphic" in2="blurOut3" mode="normal"/></filter></defs><g><ellipse cx="16" cy="25" fill="#000000" filter="url(#frbssygd3oak9)" rx="10" ry="10" style="stroke: none; stroke-width: 1.0;"/><rect fill="#FEFECE" filter="url(#frbssygd3oak9)" height="33.9688" rx="12.5" ry="12.5" style="stroke: #A80036; stroke-width: 1.5;" width="64" x="114" y="8"/><text fill="#000000" font-family="sans-serif" font-size="12" lengthAdjust="spacingAndGlyphs" textLength="44" x="124" y="29.1387">master</text><rect fill="#FEFECE" filter="url(#frbssygd3oak9)" height="33.9688" rx="12.5" ry="12.5" style="stroke: #A80036; stroke-width: 1.5;" width="40" x="313" y="8"/><text fill="#000000" font-family="sans-serif" font-size="12" lengthAdjust="spacingAndGlyphs" textLength="20" x="323" y="29.1387">Diff</text><rect fill="#FEFECE" filter="url(#frbssygd3oak9)" height="33.9688" rx="12.5" ry="12.5" style="stroke: #A80036; stroke-width: 1.5;" width="89" x="394" y="8"/><text fill="#000000" font-family="sans-serif" font-size="12" lengthAdjust="spacingAndGlyphs" textLength="69" x="404" y="29.1387">Deploy Dev</text><rect fill="#FEFECE" filter="url(#frbssygd3oak9)" height="33.9688" rx="12.5" ry="12.5" style="stroke: #A80036; stroke-width: 1.5;" width="74" x="524" y="8"/><text fill="#000000" font-family="sans-serif" font-size="12" lengthAdjust="spacingAndGlyphs" textLength="54" x="534" y="29.1387">Test Dev</text><rect fill="#FEFECE" filter="url(#frbssygd3oak9)" height="33.9688" rx="12.5" ry="12.5" style="stroke: #A80036; stroke-width: 1.5;" width="120" x="639" y="8"/><text fill="#000000" font-family="sans-serif" font-size="12" lengthAdjust="spacingAndGlyphs" textLength="100" x="649" y="29.1387">Deploy NonProd</text><rect fill="#FEFECE" filter="url(#frbssygd3oak9)" height="33.9688" rx="12.5" ry="12.5" style="stroke: #A80036; stroke-width: 1.5;" width="105" x="800" y="8"/><text fill="#000000" font-family="sans-serif" font-size="12" lengthAdjust="spacingAndGlyphs" textLength="85" x="810" y="29.1387">Test NonProd</text><rect fill="#FEFECE" filter="url(#frbssygd3oak9)" height="33.9688" rx="12.5" ry="12.5" style="stroke: #A80036; stroke-width: 1.5;" width="95" x="946" y="8"/><text fill="#000000" font-family="sans-serif" font-size="12" lengthAdjust="spacingAndGlyphs" textLength="75" x="956" y="29.1387">Deploy Prod</text><rect fill="#FEFECE" filter="url(#frbssygd3oak9)" height="33.9688" rx="12.5" ry="12.5" style="stroke: #A80036; stroke-width: 1.5;" width="80" x="1082" y="8"/><text fill="#000000" font-family="sans-serif" font-size="12" lengthAdjust="spacingAndGlyphs" textLength="60" x="1092" y="29.1387">Test Prod</text><!--link start to master--><path d="M26.2009,25 C43.7817,25 80.6169,25 108.8293,25 " fill="none" id="start-master" style="stroke: #A80036; stroke-width: 1.0;"/><polygon fill="#A80036" points="113.9903,25,104.9903,21,108.9903,25,104.9903,29,113.9903,25" style="stroke: #A80036; stroke-width: 1.0;"/><text fill="#000000" font-family="sans-serif" font-size="11" lengthAdjust="spacingAndGlyphs" textLength="46" x="47" y="22.2104">git push</text><!--link master to Diff--><path d="M178.1464,25 C214.822,25 274.0464,25 307.6272,25 " fill="none" id="master-Diff" style="stroke: #A80036; stroke-width: 1.0;"/><polygon fill="#A80036" points="312.7892,25,303.7892,21,307.7892,25,303.7892,29,312.7892,25" style="stroke: #A80036; stroke-width: 1.0;"/><text fill="#000000" font-family="sans-serif" font-size="11" lengthAdjust="spacingAndGlyphs" textLength="93" x="199" y="22.2104">triggers pipeline</text><!--link Diff to Deploy Dev--><path d="M353.3415,25 C363.4008,25 376.0274,25 388.4534,25 " fill="none" id="Diff-Deploy Dev" style="stroke: #A80036; stroke-width: 1.0;"/><polygon fill="#A80036" points="393.7585,25,384.7585,21,388.7585,25,384.7585,29,393.7585,25" style="stroke: #A80036; stroke-width: 1.0;"/><!--link Deploy Dev to Test Dev--><path d="M483.0718,25 C494.6994,25 507.1949,25 518.7008,25 " fill="none" id="Deploy Dev-Test Dev" style="stroke: #A80036; stroke-width: 1.0;"/><polygon fill="#A80036" points="523.9109,25,514.9109,21,518.9109,25,514.9109,29,523.9109,25" style="stroke: #A80036; stroke-width: 1.0;"/><!--link Test Dev to Deploy NonProd--><path d="M598.3448,25 C609.2406,25 621.4809,25 633.5745,25 " fill="none" id="Test Dev-Deploy NonProd" style="stroke: #A80036; stroke-width: 1.0;"/><polygon fill="#A80036" points="638.7441,25,629.7441,21,633.7441,25,629.7441,29,638.7441,25" style="stroke: #A80036; stroke-width: 1.0;"/><!--link Deploy NonProd to Test NonProd--><path d="M759.2267,25 C770.8806,25 783.068,25 794.644,25 " fill="none" id="Deploy NonProd-Test NonProd" style="stroke: #A80036; stroke-width: 1.0;"/><polygon fill="#A80036" points="799.9156,25,790.9156,21,794.9156,25,790.9156,29,799.9156,25" style="stroke: #A80036; stroke-width: 1.0;"/><!--link Test NonProd to Deploy Prod--><path d="M905.0032,25 C916.546,25 928.7785,25 940.3467,25 " fill="none" id="Test NonProd-Deploy Prod" style="stroke: #A80036; stroke-width: 1.0;"/><polygon fill="#A80036" points="945.6101,25,936.6101,21,940.6101,25,936.6101,29,945.6101,25" style="stroke: #A80036; stroke-width: 1.0;"/><!--link Deploy Prod to Test Prod--><path d="M1041.3487,25 C1052.8582,25 1065.1203,25 1076.5184,25 " fill="none" id="Deploy Prod-Test Prod" style="stroke: #A80036; stroke-width: 1.0;"/><polygon fill="#A80036" points="1081.6889,25,1072.6889,21,1076.6889,25,1072.6889,29,1081.6889,25" style="stroke: #A80036; stroke-width: 1.0;"/><!--
@startuml
left to right direction
(*) - -> [git push] "master"


"master" - ->  [triggers pipeline] "Diff"
"Diff" - -> "Deploy Dev"
"Deploy Dev" - -> "Test Dev"
"Test Dev" - -> "Deploy NonProd"
"Deploy NonProd" - -> "Test NonProd"
"Test NonProd" - -> "Deploy Prod"
"Deploy Prod" - -> "Test Prod"
@enduml

PlantUML version 1.2019.04(Fri Mar 29 15:44:36 UTC 2019)
(GPL source distribution)
Java Runtime: OpenJDK Runtime Environment
JVM: OpenJDK 64-Bit Server VM
Java Version: 1.8.0_201-heroku-b09
Operating System: Linux
OS Version: 4.4.0-1048-aws
Default Encoding: UTF-8
Language: en
Country: US
--></g></svg>